<?xml version="1.0" encoding="UTF-8"?>
<svg width="44px" height="61px" viewBox="0 0 44 61" version="1.1" xmlns="http://www.w3.org/2000/svg" xmlns:xlink="http://www.w3.org/1999/xlink">
    <!-- Generator: Sketch 46.1 (44463) - http://www.bohemiancoding.com/sketch -->
    <title>Shape</title>
    <desc>Created with Sketch.</desc>
    <defs></defs>
    <g id="Page-1" stroke="none" stroke-width="1" fill="none" fill-rule="evenodd">
        <g id="home-copy-2" transform="translate(-985.000000, -1049.000000)" fill-rule="nonzero" fill="#EA5455">
            <g id="good" transform="translate(984.625000, 1049.000000) rotate(180.000000) translate(-984.625000, -1049.000000) translate(941.125000, 989.000000)">
                <path d="M42.0565251,33.7640154 C42.0565251,31.0522008 40.4967568,28.6994595 38.2281081,27.5511197 C39.3352124,26.232278 39.9081081,24.5763707 39.8460232,22.8342857 C39.7146718,19.1353668 36.5367568,16.1261004 32.7620849,16.1261004 L27.3111197,16.1261004 L27.3111197,7.49166023 C27.3111197,3.36069498 23.9504247,0 19.8194595,0 C15.6884942,0 12.3277992,3.36069498 12.3277992,7.49166023 L12.3277992,16.5966023 C5.37196911,18.3220077 0.19969112,24.6159846 0.19969112,32.0979151 L0.19969112,43.8905792 C0.19969112,52.6976062 7.36471042,59.8623938 16.1715058,59.8623938 L30.4839382,59.8623938 C33.707722,59.8623938 36.3210811,57.3850193 36.433668,54.2221622 C36.47861,52.9556757 36.1241699,51.7433977 35.4259459,50.7213127 C37.7668726,49.5989189 39.3873359,47.2058687 39.3873359,44.4412355 C39.3873359,42.816834 38.8264865,41.3221622 37.8905792,40.1365251 C40.3406178,39.0581467 42.0565251,36.6083398 42.0565251,33.7640154 Z M15.5710425,7.49166023 C15.5710425,5.14911197 17.4769112,3.24324324 19.8194595,3.24324324 C22.1620077,3.24324324 24.0678764,5.14911197 24.0678764,7.49166023 L24.0678764,16.1261004 L16.1717375,16.1261004 C15.9704247,16.1261004 15.7707336,16.1339768 15.5712741,16.14139 L15.5712741,7.49166023 L15.5710425,7.49166023 Z M35.0962934,37.4810039 L32.4268726,37.4810039 L20.3613127,37.4810039 C19.4657143,37.4810039 18.7396911,38.207027 18.7396911,39.1026255 C18.7396911,39.9982239 19.4657143,40.7242471 20.3613127,40.7242471 L32.4268726,40.7242471 C34.4766023,40.7242471 36.1440927,42.3917375 36.1440927,44.4414672 C36.1440927,46.4911969 34.4766023,48.1584556 32.4268726,48.1584556 L20.3613127,48.1584556 C19.4657143,48.1584556 18.7396911,48.8844788 18.7396911,49.7800772 C18.7396911,50.6756757 19.4657143,51.4016988 20.3613127,51.4016988 L30.5854054,51.4016988 C31.2996139,51.4016988 31.9665637,51.6850193 32.4627799,52.1990734 C32.9587645,52.7128958 33.2177606,53.3905019 33.192278,54.1067954 C33.1429344,55.4918919 31.9278764,56.6189189 30.4839382,56.6189189 L16.1715058,56.6189189 C9.15289575,56.6189189 3.44293436,50.9089575 3.44293436,43.8903475 L3.44293436,32.0976834 C3.44293436,25.0790734 9.15289575,19.369112 16.1715058,19.369112 L32.7620849,19.369112 C34.8106564,19.369112 36.5346718,20.9752124 36.6046332,22.9491892 C36.6410039,23.9696525 36.2717375,24.934749 35.5651737,25.667027 C34.8579151,26.3997683 33.9078764,26.8033205 32.8899614,26.8033205 L20.3610811,26.8033205 C19.4654826,26.8033205 18.7394595,27.5293436 18.7394595,28.4249421 C18.7394595,29.3205405 19.4654826,30.0465637 20.3610811,30.0465637 L35.0958301,30.0465637 C37.1455598,30.0465637 38.8128185,31.7140541 38.8128185,33.7635521 C38.8128185,35.8130502 37.1457915,37.4810039 35.0962934,37.4810039 Z" id="Shape"></path>
            </g>
        </g>
    </g>
</svg>